<?xml version="1.0" encoding="utf-8"?>
<svg xmlns="http://www.w3.org/2000/svg" viewBox="-663.6143 -146.1513 2238.954 658.555" width="2238.95px" height="658.555px">
  <g transform="matrix(0.10000000149011612, 0, 0, -0.10000000149011612, -676.0250140435992, 305.4536681608456)">
    <path class="st0" d="M7163.1,4504.7c-72.8-7.8-137.6-20.3-143.9-26.6c-6.3-6.3-4.7-70.4,1.6-143.9c7.9-72,12.7-134.5,9.5-137.7 c-9.5-7.8-1184.7-111.1-1195.8-104.8c-6.3,3.1-15.8,64.1-20.6,134.6c-6.3,72-15.8,134.5-22.1,140.8 c-9.5,9.4-3729.8-316-4052.4-353.6l-83.8-11l11.1-147.1c9.5-136.1,9.5-147.1-19-147.1c-15.8-1.6-284.7-25-597.9-53.2 c-313.2-29.7-571-50.1-574.2-48.5c-3.2,3.1-9.5,57.9-14.2,123.6c-12.7,167.4-14.2,169-183.5,151.8c-77.5-7.8-147.1-20.3-153.4-26.6 c-7.9-7.8,104.4-1306.4,257.8-2969.5l272.1-2955.4l158.2,11c87,4.7,162.9,15.6,167.7,21.9c6.3,6.3,4.7,73.5-3.2,150.2 s-11.1,142.4-6.3,147.1c3.2,4.7,272.1,31.3,594.7,61c428.7,39.1,591.6,48.5,599.5,36c6.3-11,15.8-75.1,20.6-145.5 c6.3-68.8,15.8-131.4,22.1-136.1c12.7-12.5,4068.3,350.5,4111,366.1c22.1,7.8,23.7,31.3,14.2,156.5l-11.1,147.1l83.8,9.4 c221.4,25,1110.4,103.3,1116.7,98.6c3.2-3.1,9.5-64.1,15.8-134.6c4.7-70.4,17.4-137.7,26.9-148.6c25.3-32.9,395.4,3.1,400.2,37.5 c1.6,12.5-118.6,1347.1-268.9,2964.8l-272.1,2941.3l-63.3,1.6C7326.1,4517.2,7237.5,4512.6,7163.1,4504.7z M7074.6,3736.5 c11.1-48.5,74.3-766.6,69.6-772.9c-7.9-6.3-1191.1-111.1-1197.4-106.4c-6.3,6.3-82.3,793.2-75.9,797.9 c1.6,1.6,267.3,28.2,588.4,57.9c322.7,29.7,590,54.8,596.3,56.3C7061.9,3769.4,7071.4,3755.3,7074.6,3736.5z M1721.9,3259.4 c0-15.6,14.2-175.2,31.6-356.7c17.4-179.9,31.6-350.5,31.6-377.1v-46.9l-593.2-53.2c-325.8-28.2-596.3-48.5-601.1-43.8 c-12.7,11-79.1,776-69.6,787c6.3,6.3,993.3,103.3,1173.7,115.8C1710.8,3286,1721.9,3275,1721.9,3259.4z M4453.6,2714.9 c167.7-34.4,242-61,406.5-142.4c147.1-73.5,193-104.8,330.6-228.4l82.3-72l-61.7-87.6c-33.2-46.9-79.1-104.8-101.2-129.9 c-23.7-23.5-68-75.1-98.1-114.2c-77.5-97-161.3-187.7-175.6-187.7c-6.3,0-56.9,37.5-110.7,84.5 c-107.6,93.9-278.4,183.1-401.8,211.2c-186.6,43.8-427.1,15.6-582.1-64.1c-91.7-50.1-249.9-183.1-284.7-242.5 c-125-212.8-170.8-402.1-142.4-588.3c64.9-431.8,389.1-716.6,814.6-716.6c145.5,1.6,240.4,21.9,371.7,81.4 c128.1,59.5,240.4,150.2,322.7,256.6c36.4,46.9,77.5,86,93.3,86c25.3,0,69.6-34.4,300.5-231.6c47.5-42.2,110.7-90.7,139.2-111.1 c28.5-20.3,50.6-48.5,50.6-67.3c0-51.6-169.2-255-275.2-333.2c-36.4-25-68-50.1-72.8-56.3c-4.7-4.7-49-36-99.7-67.3 c-444.5-280.1-1093-316-1550.1-86c-181.9,92.3-417.6,281.6-514.1,413c-136,184.6-175.6,261.3-242,452.2 c-50.6,142.4-66.4,247.2-68,463.1c-3.2,309.8,26.9,445.9,155,691.5c80.7,156.5,148.7,247.2,286.3,380.2 c99.7,95.4,115.5,109.5,213.5,181.5c101.2,72,393.9,201.8,460.3,201.8c15.8,0,42.7,6.3,58.5,15.6c36.4,21.9,317.9,43.8,457.1,37.5 C4278,2741.5,4385.6,2727.4,4453.6,2714.9z M7223.3,2140.7c20.6-215.9,30.1-397.4,23.7-403.7c-15.8-14.1-1173.7-115.8-1184.7-104.8 c-9.5,9.4-85.4,782.3-77.5,790.1c4.7,4.7,1078.8,106.4,1162.6,111.1l41.1,1.6L7223.3,2140.7z M1832.6,2031.2 c1.6-11,17.4-190.9,36.4-399l36.4-380.2l-49-7.8c-82.3-12.5-1148.4-104.8-1154.7-98.6c-11.1,12.5-74.3,782.3-64.9,791.7 c11.1,9.4,1001.2,106.4,1137.3,111.1C1810.5,2050,1832.6,2042.2,1832.6,2031.2z M7305.5,1280.2c0-11,15.8-187.7,34.8-392.7 c17.4-203.4,30.1-375.5,23.7-380.2c-9.5-9.4-1183.2-118.9-1191.1-111.1c-4.7,4.7-58.5,550.7-72.8,738.5l-4.7,62.6l529.9,48.5 C7245.4,1303.7,7305.5,1306.8,7305.5,1280.2z M1943.4,810.9c6.3-32.9,74.3-788.5,72.8-790.1C2008.2,11.4,826.7-88.7,818.7-79.4 c-11.1,9.4-83.8,783.8-74.3,790.1C761.8,726.4,1941.8,823.4,1943.4,810.9z M7421-2.7c23.7-205,64.9-716.6,56.9-722.8 c-4.7-4.7-1187.9-117.3-1195.8-112.6c-6.3,4.7-72.8,791.7-66.4,797.9c3.2,3.1,270.5,31.3,591.6,61c322.7,29.7,590,54.8,594.7,56.3 C7406.7,77.1,7416.2,41.1,7421-2.7z M2060.4-456.4c4.7-28.2,19-178.4,33.2-333.2c12.7-154.9,28.5-314.5,33.2-353.6l7.9-70.4 l-594.7-53.2c-363.8-32.9-599.5-46.9-607.4-37.5c-12.7,14.1-85.4,772.9-75.9,783.8c4.7,3.1,1037.6,103.3,1168.9,112.6 C2044.6-406.3,2055.7-422,2060.4-456.4z" style="fill: rgb(245, 65, 63);"/>
  </g>
  <path class="st0" style="fill: rgb(245, 65, 63);" transform="matrix(1, 0, 0, 1, 327.66514038041623, 202.74687799056983)"/>
  <text transform="matrix(1.0110000371932983, 0, 0, 1, 180.53285755314982, 319.28551671759806)" class="st1 st2 st3" style="white-space: pre; fill: rgb(255, 255, 255); font-family: Arial; font-size: 359.843px; line-height: 575.749px; perspective-origin: 389.396px 0px; font-weight: bold;">CinePro</text>
</svg>