<?xml version="1.0" encoding="utf-8"?>
<svg xmlns="http://www.w3.org/2000/svg" viewBox="8.4828 20.4103 1415.5103 420.9191" width="1415.51px" height="420.919px">
  <rect x="-172.9" y="-79.277" width="192" height="214.1" transform="matrix(1, 0, 0, 1, 327.66514038041623, 202.74687799056983)"/>
  <g transform="matrix(0.10000000149011612, 0, 0, -0.10000000149011612, 3.5176697825690866, 478.26940817443705)">
    <path class="st0" d="M4499.9,4571.4c-46-5-87-13-91-17s-3-45,1-92c5-46,8-86,6-88c-6-5-749-71-756-67c-4,2-10,41-13,86 c-4,46-10,86-14,90c-6,6-2358-202-2562-226l-53-7l7-94c6-87,6-94-12-94c-10-1-180-16-378-34c-198-19-361-32-363-31c-2,2-6,37-9,79 c-8,107-9,108-116,97c-49-5-93-13-97-17c-5-5,66-835,163-1898l172-1889l100,7c55,3,103,10,106,14c4,4,3,47-2,96s-7,91-4,94 c2,3,172,20,376,39c271,25,374,31,379,23c4-7,10-48,13-93c4-44,10-84,14-87c8-8,2572,224,2599,234c14,5,15,20,9,100l-7,94l53,6 c140,16,702,66,706,63c2-2,6-41,10-86c3-45,11-88,17-95c16-21,250,2,253,24c1,8-75,861-170,1895l-172,1880l-40,1 C4602.9,4579.4,4546.9,4576.4,4499.9,4571.4z M4443.9,4080.4c7-31,47-490,44-494c-5-4-753-71-757-68c-4,4-52,507-48,510 c1,1,169,18,372,37c204,19,373,35,377,36C4435.9,4101.4,4441.9,4092.4,4443.9,4080.4z M1059.9,3775.4c0-10,9-112,20-228 c11-115,20-224,20-241v-30l-375-34c-206-18-377-31-380-28c-8,7-50,496-44,503c4,4,628,66,742,74 C1052.9,3792.4,1059.9,3785.4,1059.9,3775.4z M2786.9,3427.4c106-22,153-39,257-91c93-47,122-67,209-146l52-46l-39-56 c-21-30-50-67-64-83c-15-15-43-48-62-73c-49-62-102-120-111-120c-4,0-36,24-70,54c-68,60-176,117-254,135c-118,28-270,10-368-41 c-58-32-158-117-180-155c-79-136-108-257-90-376c41-276,246-458,515-458c92,1,152,14,235,52c81,38,152,96,204,164 c23,30,49,55,59,55c16,0,44-22,190-148c30-27,70-58,88-71s32-31,32-43c0-33-107-163-174-213c-23-16-43-32-46-36c-3-3-31-23-63-43 c-281-179-691-202-980-55c-115,59-264,180-325,264c-86,118-111,167-153,289c-32,91-42,158-43,296c-2,198,17,285,98,442 c51,100,94,158,181,243c63,61,73,70,135,116c64,46,249,129,291,129c10,0,27,4,37,10c23,14,201,28,289,24 C2675.9,3444.4,2743.9,3435.4,2786.9,3427.4z M4537.9,3060.4c13-138,19-254,15-258c-10-9-742-74-749-67c-6,6-54,500-49,505 c3,3,682,68,735,71l26,1L4537.9,3060.4z M1129.9,2990.4c1-7,11-122,23-255l23-243l-31-5c-52-8-726-67-730-63c-7,8-47,500-41,506 c7,6,633,68,719,71C1115.9,3002.4,1129.9,2997.4,1129.9,2990.4z M4589.9,2510.4c0-7,10-120,22-251c11-130,19-240,15-243 c-6-6-748-76-753-71c-3,3-37,352-46,472l-3,40l335,31C4551.9,2525.4,4589.9,2527.4,4589.9,2510.4z M1199.9,2210.4 c4-21,47-504,46-505c-5-6-752-70-757-64c-7,6-53,501-47,505C452.9,2156.4,1198.9,2218.4,1199.9,2210.4z M4662.9,1690.4 c15-131,41-458,36-462c-3-3-751-75-756-72c-4,3-46,506-42,510c2,2,171,20,374,39c204,19,373,35,376,36 C4653.9,1741.4,4659.9,1718.4,4662.9,1690.4z M1273.9,1400.4c3-18,12-114,21-213c8-99,18-201,21-226l5-45l-376-34 c-230-21-379-30-384-24c-8,9-54,494-48,501c3,2,656,66,739,72C1263.9,1432.4,1270.9,1422.4,1273.9,1400.4z" style="fill: rgb(245, 65, 63);"/>
  </g>
  <path class="st0" style="fill: rgb(245, 65, 63);" transform="matrix(1, 0, 0, 1, 327.66514038041623, 202.74687799056983)"/>
  <text class="st1 st2" style="white-space: pre; font-family: Arial; font-size: 230px; line-height: 368px; perspective-origin: 250.01px 0px; font-weight: bold;" x="214.505" y="115.151" transform="matrix(1, 0, 0, 1, 327.66514038041623, 202.74687799056983)">CinePro</text>
</svg>